<?xml version="1.0" encoding="iso-8859-1"?>
<!-- Generator: Adobe Illustrator 19.0.0, SVG Export Plug-In . SVG Version: 6.00 Build 0)  -->
<svg version="1.1" id="Layer_1" xmlns="http://www.w3.org/2000/svg" xmlns:xlink="http://www.w3.org/1999/xlink" x="0px" y="0px"
	 viewBox="0 0 490 490" style="enable-background:new 0 0 490 490;" xml:space="preserve">
<g>
	<g>
		<g>
			<path d="M415,0H75c-5.523,0-10,4.478-10,10v420c0,5.523,4.477,10,10,10h10v40c0,5.523,4.477,10,10,10h40c5.523,0,10-4.477,10-10
				v-40h200v40c0,5.523,4.477,10,10,10h40c5.523,0,10-4.477,10-10v-40h10c5.523,0,10-4.477,10-10V10C425,4.478,420.523,0,415,0z
				 M125,470h-20v-30h20V470z M235,420H85V315h150V420z M385,470h-20v-30h20V470z M405,420H255V315h150V420z M405,295H85v-60h320
				V295z M405,215H85v-10h320V215z M405,185H85v-60h320V185z M405,105H85V95h320V105z M405,75H85V20h320V75z"/>
			<rect x="270" y="355" width="30" height="20"/>
			<rect x="190" y="355" width="30" height="20"/>
		</g>
	</g>
</g>
</svg>
